<mxfile host="app.diagrams.net" modified="2020-04-08T03:03:12.062Z" agent="5.0 (Windows NT 10.0; Win64; x64) AppleWebKit/537.36 (KHTML, like Gecko) Chrome/80.0.3987.149 Safari/537.36" etag="VcMDf9VB2tG3Gk4xBDgE" version="12.9.9" type="github">
  <diagram id="C5RBs43oDa-KdzZeNtuy" name="Page-1">
    <mxGraphModel dx="1014" dy="611" grid="1" gridSize="10" guides="1" tooltips="1" connect="1" arrows="1" fold="1" page="1" pageScale="1" pageWidth="827" pageHeight="1169" math="0" shadow="0">
      <root>
        <mxCell id="WIyWlLk6GJQsqaUBKTNV-0" />
        <mxCell id="WIyWlLk6GJQsqaUBKTNV-1" parent="WIyWlLk6GJQsqaUBKTNV-0" />
        <mxCell id="8DlFaSqmFS8OeERcK3Ad-7" value="" style="edgeStyle=orthogonalEdgeStyle;rounded=0;orthogonalLoop=1;jettySize=auto;html=1;" edge="1" parent="WIyWlLk6GJQsqaUBKTNV-1" source="WIyWlLk6GJQsqaUBKTNV-3" target="8DlFaSqmFS8OeERcK3Ad-6">
          <mxGeometry relative="1" as="geometry" />
        </mxCell>
        <mxCell id="WIyWlLk6GJQsqaUBKTNV-3" value="click onResume menu item" style="rounded=1;whiteSpace=wrap;html=1;fontSize=12;glass=0;strokeWidth=1;shadow=0;" parent="WIyWlLk6GJQsqaUBKTNV-1" vertex="1">
          <mxGeometry x="160" y="180" width="120" height="40" as="geometry" />
        </mxCell>
        <mxCell id="8DlFaSqmFS8OeERcK3Ad-9" value="" style="edgeStyle=orthogonalEdgeStyle;rounded=0;orthogonalLoop=1;jettySize=auto;html=1;" edge="1" parent="WIyWlLk6GJQsqaUBKTNV-1" source="8DlFaSqmFS8OeERcK3Ad-6" target="8DlFaSqmFS8OeERcK3Ad-8">
          <mxGeometry relative="1" as="geometry" />
        </mxCell>
        <mxCell id="8DlFaSqmFS8OeERcK3Ad-6" value="calculateRoute&lt;br&gt;(call navkit jni)" style="rounded=1;whiteSpace=wrap;html=1;fontSize=12;glass=0;strokeWidth=1;shadow=0;" vertex="1" parent="WIyWlLk6GJQsqaUBKTNV-1">
          <mxGeometry x="160" y="250" width="120" height="40" as="geometry" />
        </mxCell>
        <mxCell id="8DlFaSqmFS8OeERcK3Ad-11" value="" style="edgeStyle=orthogonalEdgeStyle;rounded=0;orthogonalLoop=1;jettySize=auto;html=1;" edge="1" parent="WIyWlLk6GJQsqaUBKTNV-1" source="8DlFaSqmFS8OeERcK3Ad-8" target="8DlFaSqmFS8OeERcK3Ad-10">
          <mxGeometry relative="1" as="geometry" />
        </mxCell>
        <mxCell id="8DlFaSqmFS8OeERcK3Ad-13" value="" style="edgeStyle=orthogonalEdgeStyle;rounded=0;orthogonalLoop=1;jettySize=auto;html=1;" edge="1" parent="WIyWlLk6GJQsqaUBKTNV-1" source="8DlFaSqmFS8OeERcK3Ad-8" target="8DlFaSqmFS8OeERcK3Ad-12">
          <mxGeometry relative="1" as="geometry" />
        </mxCell>
        <mxCell id="8DlFaSqmFS8OeERcK3Ad-8" value="notifyRoutePlan&lt;br&gt;(async return result)" style="rounded=1;whiteSpace=wrap;html=1;fontSize=12;glass=0;strokeWidth=1;shadow=0;" vertex="1" parent="WIyWlLk6GJQsqaUBKTNV-1">
          <mxGeometry x="160" y="310" width="120" height="40" as="geometry" />
        </mxCell>
        <mxCell id="8DlFaSqmFS8OeERcK3Ad-19" value="" style="edgeStyle=orthogonalEdgeStyle;rounded=0;orthogonalLoop=1;jettySize=auto;html=1;" edge="1" parent="WIyWlLk6GJQsqaUBKTNV-1" source="8DlFaSqmFS8OeERcK3Ad-12" target="8DlFaSqmFS8OeERcK3Ad-18">
          <mxGeometry relative="1" as="geometry" />
        </mxCell>
        <mxCell id="8DlFaSqmFS8OeERcK3Ad-12" value="MovingMapFragment&lt;br&gt;.&lt;b&gt;onResume&lt;/b&gt;" style="rounded=1;whiteSpace=wrap;html=1;fontSize=12;glass=0;strokeWidth=1;shadow=0;" vertex="1" parent="WIyWlLk6GJQsqaUBKTNV-1">
          <mxGeometry x="320" y="370" width="120" height="40" as="geometry" />
        </mxCell>
        <mxCell id="8DlFaSqmFS8OeERcK3Ad-18" value="textview.set(..)&amp;nbsp;&lt;br&gt;&lt;b&gt;default initial value&lt;/b&gt;&lt;br&gt;(eg: 0 ft)" style="rounded=1;whiteSpace=wrap;html=1;fontSize=12;glass=0;strokeWidth=1;shadow=0;" vertex="1" parent="WIyWlLk6GJQsqaUBKTNV-1">
          <mxGeometry x="520" y="370" width="120" height="40" as="geometry" />
        </mxCell>
        <mxCell id="8DlFaSqmFS8OeERcK3Ad-15" value="" style="edgeStyle=orthogonalEdgeStyle;rounded=0;orthogonalLoop=1;jettySize=auto;html=1;" edge="1" parent="WIyWlLk6GJQsqaUBKTNV-1" source="8DlFaSqmFS8OeERcK3Ad-10" target="8DlFaSqmFS8OeERcK3Ad-14">
          <mxGeometry relative="1" as="geometry" />
        </mxCell>
        <mxCell id="8DlFaSqmFS8OeERcK3Ad-10" value="startNavigation&lt;br&gt;(call navkit jni)" style="rounded=1;whiteSpace=wrap;html=1;fontSize=12;glass=0;strokeWidth=1;shadow=0;" vertex="1" parent="WIyWlLk6GJQsqaUBKTNV-1">
          <mxGeometry x="160" y="370" width="120" height="40" as="geometry" />
        </mxCell>
        <mxCell id="8DlFaSqmFS8OeERcK3Ad-23" value="" style="edgeStyle=orthogonalEdgeStyle;rounded=0;orthogonalLoop=1;jettySize=auto;html=1;" edge="1" parent="WIyWlLk6GJQsqaUBKTNV-1" source="8DlFaSqmFS8OeERcK3Ad-14" target="8DlFaSqmFS8OeERcK3Ad-22">
          <mxGeometry relative="1" as="geometry" />
        </mxCell>
        <mxCell id="8DlFaSqmFS8OeERcK3Ad-14" value="notifyNewRoute&lt;br&gt;(async return result)" style="rounded=1;whiteSpace=wrap;html=1;fontSize=12;glass=0;strokeWidth=1;shadow=0;" vertex="1" parent="WIyWlLk6GJQsqaUBKTNV-1">
          <mxGeometry x="160" y="445" width="120" height="40" as="geometry" />
        </mxCell>
        <mxCell id="8DlFaSqmFS8OeERcK3Ad-25" value="" style="edgeStyle=orthogonalEdgeStyle;rounded=0;orthogonalLoop=1;jettySize=auto;html=1;" edge="1" parent="WIyWlLk6GJQsqaUBKTNV-1" source="8DlFaSqmFS8OeERcK3Ad-22" target="8DlFaSqmFS8OeERcK3Ad-24">
          <mxGeometry relative="1" as="geometry" />
        </mxCell>
        <mxCell id="8DlFaSqmFS8OeERcK3Ad-22" value="setRoute&lt;br&gt;set the detail route" style="rounded=1;whiteSpace=wrap;html=1;fontSize=12;glass=0;strokeWidth=1;shadow=0;" vertex="1" parent="WIyWlLk6GJQsqaUBKTNV-1">
          <mxGeometry x="160" y="505" width="120" height="40" as="geometry" />
        </mxCell>
        <mxCell id="8DlFaSqmFS8OeERcK3Ad-27" value="" style="edgeStyle=orthogonalEdgeStyle;rounded=0;orthogonalLoop=1;jettySize=auto;html=1;" edge="1" parent="WIyWlLk6GJQsqaUBKTNV-1" source="8DlFaSqmFS8OeERcK3Ad-24" target="8DlFaSqmFS8OeERcK3Ad-26">
          <mxGeometry relative="1" as="geometry" />
        </mxCell>
        <mxCell id="8DlFaSqmFS8OeERcK3Ad-24" value="notify" style="rounded=1;whiteSpace=wrap;html=1;fontSize=12;glass=0;strokeWidth=1;shadow=0;" vertex="1" parent="WIyWlLk6GJQsqaUBKTNV-1">
          <mxGeometry x="160" y="564.5" width="120" height="40" as="geometry" />
        </mxCell>
        <mxCell id="8DlFaSqmFS8OeERcK3Ad-26" value="textview.set(..)&lt;br&gt;&lt;b&gt;the detail accurate&lt;/b&gt; value" style="rounded=1;whiteSpace=wrap;html=1;fontSize=12;glass=0;strokeWidth=1;shadow=0;" vertex="1" parent="WIyWlLk6GJQsqaUBKTNV-1">
          <mxGeometry x="520" y="564.5" width="120" height="40" as="geometry" />
        </mxCell>
      </root>
    </mxGraphModel>
  </diagram>
</mxfile>
